<svg width="123" height="17" viewBox="0 0 123 17" fill="none" xmlns="http://www.w3.org/2000/svg">
<path d="M0.848 16V0.352H4.376V16H0.848ZM8.06675 16V0.352H11.6908L15.7708 8.128L17.3068 11.584H17.4028C17.3388 10.752 17.2508 9.824 17.1388 8.8C17.0268 7.776 16.9708 6.8 16.9708 5.872V0.352H20.3307V16H16.7068L12.6268 8.2L11.0908 4.792H10.9948C11.0748 5.656 11.1628 6.584 11.2588 7.576C11.3708 8.568 11.4268 9.528 11.4268 10.456V16H8.06675ZM27.0757 16V3.328H22.7797V0.352H34.9237V3.328H30.6277V16H27.0757ZM37.3636 16V0.352H47.1556V3.328H40.8916V6.472H46.2196V9.424H40.8916V13.024H47.3956V16H37.3636ZM50.5121 16V0.352H56.1521C57.2561 0.352 58.2641 0.504 59.1761 0.808C60.0881 1.096 60.8161 1.592 61.3601 2.296C61.9041 3 62.1761 3.976 62.1761 5.224C62.1761 6.376 61.9201 7.328 61.4081 8.08C60.9121 8.816 60.2401 9.368 59.3921 9.736L62.9441 16H58.9841L55.9841 10.36H54.0401V16H50.5121ZM54.0401 7.552H55.8641C56.7921 7.552 57.4961 7.36 57.9761 6.976C58.4721 6.576 58.7201 5.992 58.7201 5.224C58.7201 4.456 58.4721 3.92 57.9761 3.616C57.4961 3.312 56.7921 3.16 55.8641 3.16H54.0401V7.552ZM72.1428 16.288C70.7188 16.288 69.4228 15.984 68.2548 15.376C67.1028 14.768 66.1828 13.872 65.4948 12.688C64.8228 11.488 64.4868 10.016 64.4868 8.272C64.4868 6.544 64.8308 5.072 65.5188 3.856C66.2228 2.624 67.1508 1.688 68.3028 1.048C69.4548 0.391999 70.7268 0.0639992 72.1188 0.0639992C73.2548 0.0639992 74.2308 0.271999 75.0468 0.688C75.8628 1.104 76.5268 1.576 77.0388 2.104L75.1908 4.36C74.7908 4.008 74.3668 3.712 73.9188 3.472C73.4708 3.232 72.9108 3.112 72.2388 3.112C71.0228 3.112 70.0308 3.56 69.2628 4.456C68.4948 5.352 68.1108 6.584 68.1108 8.152C68.1108 9.752 68.4788 11 69.2148 11.896C69.9508 12.792 71.0468 13.24 72.5028 13.24C72.8228 13.24 73.1348 13.2 73.4388 13.12C73.7428 13.04 73.9908 12.92 74.1828 12.76V10.072H71.5908V7.192H77.3028V14.392C76.7588 14.92 76.0308 15.368 75.1188 15.736C74.2228 16.104 73.2308 16.288 72.1428 16.288ZM84.02 8.08L83.636 9.52H86.972L86.612 8.08C86.404 7.296 86.188 6.464 85.964 5.584C85.756 4.704 85.548 3.856 85.34 3.04H85.244C85.052 3.872 84.852 4.728 84.644 5.608C84.452 6.472 84.244 7.296 84.02 8.08ZM78.356 16L83.252 0.352H87.5L92.396 16H88.652L87.692 12.28H82.916L81.956 16H78.356ZM94.1058 16V0.352H97.9698L100.49 7.312C100.65 7.76 100.802 8.232 100.946 8.728C101.09 9.224 101.242 9.712 101.402 10.192H101.498C101.658 9.712 101.802 9.224 101.93 8.728C102.074 8.232 102.226 7.76 102.386 7.312L104.858 0.352H108.698V16H105.482V10.264C105.482 9.752 105.506 9.184 105.554 8.56C105.618 7.92 105.682 7.28 105.746 6.64C105.826 6 105.89 5.432 105.938 4.936H105.842L104.57 8.656L102.338 14.632H100.394L98.1618 8.656L96.9138 4.936H96.8178C96.8818 5.432 96.9458 6 97.0098 6.64C97.0738 7.28 97.1298 7.92 97.1778 8.56C97.2418 9.184 97.2738 9.752 97.2738 10.264V16H94.1058ZM112.387 16V0.352H122.179V3.328H115.915V6.472H121.243V9.424H115.915V13.024H122.419V16H112.387Z" fill="#35495E"/>
</svg>
